<svg xmlns="http://www.w3.org/2000/svg" viewBox="0 0 298.69 87"><defs><style>.cls-1{fill:red;}.cls-2{fill:#ff0;}.cls-3{fill:lime;}.cls-4{fill:blue;}</style></defs><title>logo</title><g id="Layer_2" data-name="Layer 2"><g id="Layer_1-2" data-name="Layer 1"><rect class="cls-1" width="9" height="87"/><rect class="cls-2" x="9" width="9" height="87"/><rect class="cls-3" x="18" width="9" height="87"/><rect class="cls-4" x="27" width="9" height="87"/><path d="M78.62,36.13H49.07V6.52H78.62ZM72.8,12.4H55.12v6H72.8Zm0,11.87H55.12v5.81H72.8Z"/><path d="M108.68,12.57v23.5H85V22h17.68V18.11H85V12.57Zm-6.05,18.25V26.75H91v4.07Z"/><path d="M133.09,12.57V24.21h-6V18.45H120.6V36.13h-6V12.57Z"/><path d="M144.44,18.39V30h17.69v6H138.4V12.4h23.73v6Z"/><path d="M191.79,12.57V36.13H168.06V12.57Zm-6,5.88H174.11v11.8h11.64Z"/><path d="M221.57,4.77V36.13H197.84V12.57h17.68V4.77Zm-6,25.48V18.45H203.66v11.8Z"/><path d="M227.39,12.57h23.73V26.7H233.43v3.84h17.69v5.53H227.39Zm6,9.32h11.64V17.82H233.43Z"/><path d="M72.8,75.79V70h-9V64.09h14.8V81.83H49.07V52.22H78.62V58.1H55.12V75.79Z"/><path d="M84.61,58.27h23.73V72.4H90.66v3.84h17.68v5.53H84.61Zm6,9.32h11.63V63.52H90.66Z"/><path d="M137.67,58.27V81.83h-5.83V64.15H120V81.83h-5.82V58.27Z"/><path d="M143.71,58.27h23.73V72.4H149.76v3.84h17.68v5.53H143.71Zm6,9.32h11.63V63.52H149.76Z"/><path d="M191.79,58.27V69.91h-6V64.15h-6.44V81.83h-6.05V58.27Z"/><path d="M220.83,58.27v23.5H197.1V67.65h17.69V63.81H197.1V58.27Zm-6,18.25V72.45H203.15v4.07Z"/><path d="M232.53,64.15V76h11.86v5.87H226.71V50.64h5.82v7.63h11.86v5.88Z"/><path d="M274.11,58.27V81.83H250.38V58.27Zm-6,5.88H256.43V76h11.64Z"/><path d="M298.69,58.27V69.91h-6.05V64.15H286.2V81.83h-6V58.27Z"/></g></g></svg>